<?xml version="1.0" encoding="UTF-8"?>
<svg version="1.1" xmlns="http://www.w3.org/2000/svg" width="1000" height="1000">
<path d="M0 0 C17.14152413 9.35718972 30.80122096 26.22932831 43.77097499 40.52977085 C48.85236728 46.12265624 54.06981017 51.58108129 59.29950583 57.03494358 C70.01818314 68.21896451 80.56396369 79.55136752 91 91 C94.60222032 64.94252871 94.60222032 64.94252871 86.5 41.05029297 C81.33121839 34.6096017 75.06765728 29.19844243 68.74902344 23.92340088 C65.77750221 21.39891441 62.92659309 18.74449497 60.0625 16.09960938 C55.06943779 11.51237004 49.99197388 7.04812267 44.82226562 2.65989685 C43.92024414 1.83824791 43.92024414 1.83824791 43 1 C43 0.67 43 0.34 43 0 C58.34285732 -0.11706253 73.68569398 -0.2051 89.02889824 -0.25906086 C96.15385792 -0.28478752 103.27853931 -0.31983089 110.40332031 -0.37719727 C116.61694667 -0.42720326 122.83037138 -0.45933124 129.04419339 -0.47044247 C132.33121043 -0.47693256 135.61751992 -0.49473391 138.90438461 -0.52865028 C142.58357285 -0.56509545 146.26157746 -0.56993857 149.94091797 -0.56762695 C151.55609566 -0.59459152 151.55609566 -0.59459152 153.2039032 -0.62210083 C160.47986545 -0.57283137 165.89006891 0.97465468 172 5 C174.25390625 7.38671875 174.25390625 7.38671875 175.5625 9.6875 C176.01753906 10.45449219 176.47257813 11.22148437 176.94140625 12.01171875 C179.14382641 16.14836769 179.14823537 19.49147934 179.14717102 24.12112427 C179.15084771 24.97065103 179.1545244 25.8201778 179.1583125 26.6954478 C179.16937723 29.55885273 179.17319792 32.4222214 179.17700195 35.28564453 C179.18326459 37.33204769 179.1899112 39.37844971 179.19691467 41.42485046 C179.21434504 46.99740155 179.22488236 52.56994405 179.2331202 58.14251566 C179.2382669 61.62310721 179.24434283 65.10369608 179.25063133 68.58428574 C179.26969058 79.47124771 179.28391917 90.35820288 179.2922433 101.24517834 C179.30201415 113.81741052 179.32832674 126.38946655 179.36874419 138.96163666 C179.39889942 148.67467433 179.41371169 158.38766151 179.41702431 168.10074508 C179.41937581 173.90369018 179.42834914 179.70644726 179.45348549 185.50934219 C179.47676015 190.97092771 179.48100173 196.43220137 179.47072411 201.89382362 C179.47022846 203.89649683 179.47655726 205.89918535 179.49028015 207.9018116 C179.50799434 210.64057184 179.50089519 213.37821238 179.48774719 216.11697388 C179.49871644 216.9055151 179.50968568 217.69405632 179.52098733 218.50649273 C179.44656231 224.94839855 177.42200593 229.9333308 173.4296875 234.98828125 C168.6512953 239.05831883 164.02723366 240.50073201 158 242 C156.75307373 242.32282959 155.50614746 242.64565918 154.22143555 242.97827148 C141.40977572 245.97041257 126.80497671 247.12716767 115.05181885 240.28326416 C99.61991074 229.49737146 86.81533423 214.82544081 74.14377117 201.02484798 C68.95455945 195.38186809 63.64531416 189.85772097 58.32535458 184.3382988 C47.41636918 173.01507839 36.65968977 161.55853854 26 150 C22.39376714 176.05259735 22.39376714 176.05259735 30.5 199.93359375 C35.67071921 206.35890306 41.93452634 211.757256 48.25097656 217.01831055 C51.22094602 219.53432739 54.07348748 222.17731914 56.9375 224.8125 C61.93015569 229.38971303 67.00671875 233.84397926 72.17773438 238.21984863 C72.77908203 238.80729858 73.38042969 239.39474854 74 240 C74 240.66 74 241.32 74 242 C59.17860608 242.07024763 44.35723435 242.12306505 29.53570747 242.15543652 C22.65297996 242.17087025 15.7703562 242.19189241 8.88769531 242.22631836 C2.2417004 242.25954455 -4.4042153 242.2768693 -11.05029678 242.28463173 C-13.58193785 242.29016145 -16.11357323 242.30095959 -18.6451683 242.31719017 C-22.19960873 242.33906571 -25.75360822 242.34196262 -29.30810547 242.34057617 C-30.34748764 242.351362 -31.38686981 242.36214783 -32.45774841 242.3732605 C-41.48071338 242.33534363 -49.41865452 240.95999024 -56.4296875 234.98828125 C-61.07661371 229.10448663 -62.59246029 223.58946554 -62.50793457 216.1953125 C-62.51417453 215.34474274 -62.5204145 214.49417297 -62.52684355 213.61782837 C-62.5427138 210.786598 -62.53019286 207.95623574 -62.51757812 205.125 C-62.52300189 203.08756002 -62.53012598 201.05012397 -62.53881836 199.01269531 C-62.55702418 193.49204863 -62.54999538 187.9717016 -62.53730202 182.4510498 C-62.52716022 176.66787928 -62.53657098 170.88473405 -62.54284668 165.1015625 C-62.55011963 155.39057825 -62.54054456 145.67971576 -62.52148438 135.96875 C-62.49971639 124.74877158 -62.50676801 113.52908393 -62.52879 102.30911255 C-62.54695397 92.6681164 -62.54949741 83.02720768 -62.53903532 73.38619995 C-62.53280591 67.6314416 -62.53194966 61.87681983 -62.54518127 56.12207031 C-62.55675357 50.71124694 -62.54868852 45.3007977 -62.52560425 39.89001465 C-62.52032457 37.9067039 -62.52181821 35.92336156 -62.53065491 33.94006348 C-62.54162329 31.2278494 -62.5278314 28.51682617 -62.50793457 25.8046875 C-62.51685746 25.02412994 -62.52578034 24.24357239 -62.53497362 23.43936157 C-62.4418372 16.87184825 -60.37564566 11.71097537 -56.03515625 6.7578125 C-55.38417969 6.21898437 -54.73320312 5.68015625 -54.0625 5.125 C-53.41410156 4.57070313 -52.76570313 4.01640625 -52.09765625 3.4453125 C-38.92862528 -5.6283215 -14.31901731 -5.23267136 0 0 Z " fill="#F0511B" transform="translate(437,324)"/>
<path d="M0 0 C16.45585735 9.09459563 29.66799884 25.4044586 42.2187469 39.19362545 C47.14699399 44.59898017 52.20193389 49.8790589 57.26826215 55.15467072 C67.65331893 65.9742181 77.87809993 76.93340359 88 88 C86.22029371 91.81427377 83.99707091 94.24446083 80.99951172 97.22753906 C80.492034 97.73530884 79.98455627 98.24307861 79.46170044 98.76623535 C77.78906131 100.43748509 76.10945783 102.10154556 74.4296875 103.765625 C73.26625722 104.92532377 72.10326874 106.08546592 70.94070435 107.24603271 C67.884018 110.29509352 64.82137256 113.33809963 61.75744629 116.37988281 C58.63024835 119.48659913 55.50872493 122.59900545 52.38671875 125.7109375 C46.2633512 131.81287417 40.1336764 137.90842598 34 144 C30.26342344 142.25414842 27.88485525 140.11527075 24.97265625 137.16796875 C24.50186142 136.69434402 24.03106659 136.2207193 23.54600525 135.73274231 C22.0467211 134.22231245 20.5545342 132.70508851 19.0625 131.1875 C18.0636171 130.17857482 17.06427249 129.17010655 16.06445312 128.16210938 C14.21462839 126.29601596 12.36812679 124.42685112 10.52368164 122.55541992 C9.6908667 121.71213135 8.85805176 120.86884277 8 120 C7.11884521 119.10579346 6.23769043 118.21158691 5.32983398 117.2902832 C3.06608021 114.97268766 3.06608021 114.97268766 0.5625 113.125 C-2.16002381 110.86729732 -4.27089833 108.43481806 -6.53125 105.73046875 C-9.42321899 102.3231755 -12.5701788 99.35818433 -16 96.5 C-20.04381251 93.13015624 -23.59965627 89.50754797 -27 85.5 C-31.07268063 80.70190551 -35.51488775 76.53282251 -40.3046875 72.46875 C-43.70280837 69.52475588 -46.73643638 66.36248276 -49.5625 62.875 C-51.69837524 59.98455403 -51.69837524 59.98455403 -54.11914062 58.90893555 C-56.79095268 56.19724053 -56.49982275 54.01473131 -56.55578613 50.3092804 C-56.54768921 49.40928818 -56.53959229 48.50929596 -56.53125 47.58203125 C-56.5350769 46.65081955 -56.53890381 45.71960785 -56.54284668 44.76017761 C-56.54556991 42.78729168 -56.53818004 40.8143699 -56.52148438 38.84155273 C-56.50020072 35.84079914 -56.52120921 32.84247285 -56.546875 29.84179688 C-56.54422944 27.92186976 -56.53909974 26.00194414 -56.53125 24.08203125 C-56.53934692 23.19216019 -56.54744385 22.30228912 -56.55578613 21.38545227 C-56.45654587 14.69049965 -54.99756655 9.03624483 -50.18359375 4.16015625 C-49.60738281 3.79792969 -49.03117187 3.43570312 -48.4375 3.0625 C-47.56931641 2.49208984 -47.56931641 2.49208984 -46.68359375 1.91015625 C-34.07844618 -4.90422747 -13.07487627 -4.83899074 0 0 Z " fill="#F79C0E" transform="translate(435,328)"/>
<path d="M0 0 C5.23625085 4.37563569 10.11383629 8.98075997 14.91967773 13.82202148 C15.67838165 14.58218567 16.43708557 15.34234985 17.21878052 16.12554932 C18.85566163 17.76621747 20.49138711 19.40803926 22.12606621 21.05090141 C24.71821242 23.65588385 27.31353304 26.25766616 29.90968323 28.85865784 C36.35580075 35.31810193 42.79646663 41.78297309 49.23730469 48.24768066 C54.68629779 53.71645276 60.13736559 59.18314097 65.59117317 64.64711189 C68.13897711 67.20136418 70.68373232 69.75862698 73.2283783 72.31602478 C74.80241195 73.89369368 76.3765877 75.47122082 77.95092773 77.04858398 C78.64987656 77.75269913 79.34882538 78.45681427 80.06895447 79.18226624 C83.98530517 83.09903173 88.01253382 86.81607941 92.20571995 90.43450069 C94.47577584 92.41511175 96.62811048 94.49402304 98.76367188 96.6184082 C99.60393921 97.45229568 100.44420654 98.28618317 101.30993652 99.14533997 C102.62604919 100.4597834 102.62604919 100.4597834 103.96875 101.80078125 C105.35012146 103.17716011 105.35012146 103.17716011 106.75939941 104.5813446 C108.69064622 106.50665593 110.61986898 108.43396905 112.54785156 110.36254883 C115.02212908 112.83692901 117.50327911 115.30429652 119.98613739 117.77006245 C122.35981192 120.1300009 124.72633974 122.49705882 127.09375 124.86328125 C127.98735229 125.74969803 128.88095459 126.63611481 129.80163574 127.5493927 C130.61668579 128.36751938 131.43173584 129.18564606 132.27148438 130.02856445 C132.99348022 130.74913528 133.71547607 131.46970612 134.45935059 132.21211243 C136 134 136 134 136 136 C121.17860608 136.07024763 106.35723435 136.12306505 91.53570747 136.15543652 C84.65297996 136.17087025 77.7703562 136.19189241 70.88769531 136.22631836 C64.2417004 136.25954455 57.5957847 136.2768693 50.94970322 136.28463173 C48.41806215 136.29016145 45.88642677 136.30095959 43.3548317 136.31719017 C39.80039127 136.33906571 36.24639178 136.34196262 32.69189453 136.34057617 C31.65251236 136.351362 30.61313019 136.36214783 29.54225159 136.3732605 C20.51928662 136.33534363 12.58134548 134.95999024 5.5703125 128.98828125 C-0.00001418 121.93530542 -0.56963418 115.87623958 -0.45410156 107.16796875 C-0.45468567 106.00612564 -0.45526978 104.84428253 -0.45587158 103.64723206 C-0.45309655 99.82701192 -0.4220302 96.00758297 -0.390625 92.1875 C-0.38316054 89.53091105 -0.37727171 86.87436527 -0.37347412 84.21777344 C-0.36107711 77.95282019 -0.32830048 71.68814852 -0.28807616 65.42331886 C-0.24325585 58.28667057 -0.22134574 51.15000833 -0.20129442 44.01325417 C-0.15956448 29.34202467 -0.08927676 14.67101628 0 0 Z " fill="#F05C19" transform="translate(375,430)"/>
<path d="M0 0 C15.34285732 -0.11706253 30.68569398 -0.2051 46.02889824 -0.25906086 C53.15385792 -0.28478752 60.27853931 -0.31983089 67.40332031 -0.37719727 C73.61694667 -0.42720326 79.83037138 -0.45933124 86.04419339 -0.47044247 C89.33121043 -0.47693256 92.61751992 -0.49473391 95.90438461 -0.52865028 C99.58357285 -0.56509545 103.26157746 -0.56993857 106.94091797 -0.56762695 C108.55609566 -0.59459152 108.55609566 -0.59459152 110.2039032 -0.62210083 C117.47986545 -0.57283137 122.89006891 0.97465468 129 5 C131.25390625 7.38671875 131.25390625 7.38671875 132.5625 9.6875 C133.01753906 10.45449219 133.47257813 11.22148437 133.94140625 12.01171875 C135.66706629 15.2529031 136.12413823 17.06867704 136.12025452 20.75820923 C136.12231651 22.26425972 136.12231651 22.26425972 136.12442017 23.80073547 C136.12082489 24.90628281 136.11722961 26.01183014 136.11352539 27.15087891 C136.11367142 28.31184586 136.11381744 29.47281281 136.1139679 30.66896057 C136.11326903 34.5215133 136.10547781 38.37401818 136.09765625 42.2265625 C136.09579198 44.89171429 136.09431895 47.55686341 136.09336853 50.22201538 C136.09025745 56.52954085 136.08204706 62.83704904 136.07201904 69.14456689 C136.06085098 76.32464355 136.0553457 83.50472102 136.05032361 90.6848042 C136.03986427 105.45654498 136.02226914 120.22827219 136 135 C130.79782281 130.6512084 125.94718369 126.08050899 121.17211914 121.26977539 C120.04869362 120.14415947 120.04869362 120.14415947 118.90257263 118.99580383 C117.2869722 117.37641679 115.67252741 115.75587615 114.05912971 114.13429451 C111.50058943 111.56291598 108.93887314 108.99473951 106.37632751 106.42735291 C100.01368502 100.05138509 93.65649494 93.66998979 87.2991333 87.28875732 C81.92060101 81.89044445 76.53999293 76.49421665 71.15664482 71.1007061 C68.64207901 68.57969291 66.13056266 66.05566901 63.61915588 63.5315094 C62.06534525 61.97406345 60.51139248 60.41675929 58.95727539 58.85961914 C57.92287827 57.81747253 57.92287827 57.81747253 56.86758423 56.75427246 C52.97548765 52.86175838 48.96990245 49.17173543 44.80310726 45.57530499 C42.49541855 43.55916673 40.31220629 41.43928943 38.14453125 39.27392578 C37.28424316 38.41678986 36.42395508 37.55965393 35.53759766 36.67654419 C34.63831543 35.77523773 33.7390332 34.87393127 32.8125 33.9453125 C31.86000883 32.9934965 30.90736938 32.04182885 29.95458984 31.09030151 C27.97640204 29.11357563 26.00000356 27.13508324 24.02490234 25.15527344 C21.48840171 22.61302134 18.94736322 20.07535932 16.40501404 17.5389576 C14.44562542 15.58316893 12.48860774 13.6250219 10.53231812 11.66613388 C9.13984007 10.27266315 7.74534543 8.88120852 6.35083008 7.48977661 C5.51575928 6.65155365 4.68068848 5.81333069 3.8203125 4.94970703 C3.08055176 4.2091507 2.34079102 3.46859436 1.57861328 2.70559692 C0 1 0 1 0 0 Z " fill="#F16018" transform="translate(480,324)"/>
<path d="M0 0 C5.26834612 4.40393645 10.18373587 9.04056057 15.03076172 13.90136719 C15.80070969 14.66956284 16.57065765 15.43775848 17.36393738 16.22923279 C19.88836223 18.74928378 22.40914435 21.272942 24.9296875 23.796875 C26.68834056 25.55485409 28.44714202 27.31268473 30.20608521 29.07037354 C33.88087979 32.7436975 37.55386844 36.41881521 41.22558594 40.09521484 C45.00031949 43.87452651 48.77720607 47.65165943 52.55664062 51.42626953 C57.12518389 55.98903127 61.69129518 60.55421061 66.25531387 65.12149811 C67.9953781 66.86223073 69.73618907 68.60221721 71.47774887 70.34145355 C73.90279 72.76396715 76.32462294 75.18964223 78.74560547 77.61621094 C79.46972122 78.33830246 80.19383698 79.06039398 80.93989563 79.80436707 C81.59587234 80.4631636 82.25184906 81.12196014 82.92770386 81.80072021 C83.78654332 82.66012522 83.78654332 82.66012522 84.66273308 83.53689194 C87.00697741 86.10173724 87.12315358 87.8962487 87.11352539 91.26611328 C87.11341209 92.58725632 87.11341209 92.58725632 87.11329651 93.93508911 C87.10813522 94.88721283 87.10297394 95.83933655 87.09765625 96.8203125 C87.0962413 97.79410858 87.09482635 98.76790466 87.09336853 99.77120972 C87.08775973 102.88917073 87.07520573 106.0070606 87.0625 109.125 C87.05748613 111.23567605 87.05292303 113.34635322 87.04882812 115.45703125 C87.03778744 120.63804601 87.02064243 125.81901567 87 131 C73.63473763 119.63760784 60.82127753 107.65550937 48.13296604 95.54664516 C43.41011191 91.04604758 38.65566761 86.59683121 33.79516602 82.24487305 C-1.46660535 50.58379743 -1.46660535 50.58379743 -2.64314747 29.13928699 C-2.79884723 19.32375378 -1.7514686 9.64531564 0 0 Z " fill="#50197C" transform="translate(375,385)"/>
<path d="M0 0 C2.97573648 1.35436598 5.21387648 2.89553783 7.63201904 5.08869934 C8.33589249 5.72479126 9.03976593 6.36088318 9.76496887 7.01625061 C10.52669907 7.71447433 11.28842926 8.41269806 12.07324219 9.13208008 C12.88337265 9.86963531 13.69350311 10.60719055 14.52818298 11.36709595 C22.04499694 18.24356615 29.44044881 25.24792844 36.79409409 32.29828358 C41.72294543 37.01895626 46.68443917 41.68878671 51.75830078 46.25366211 C88.5277784 79.40175648 88.5277784 79.40175648 89.7571907 100.97933102 C89.91771389 110.7649542 88.83212622 120.40098251 87 130 C81.73165388 125.59606355 76.81626413 120.95943943 71.96923828 116.09863281 C70.81431633 114.94633934 70.81431633 114.94633934 69.63606262 113.77076721 C67.11163777 111.25071622 64.59085565 108.727058 62.0703125 106.203125 C60.31165944 104.44514591 58.55285798 102.68731527 56.79391479 100.92962646 C53.11912021 97.2563025 49.44613156 93.58118479 45.77441406 89.90478516 C41.99968051 86.12547349 38.22279393 82.34834057 34.44335938 78.57373047 C29.87481611 74.01096873 25.30870482 69.44578939 20.74468613 64.87850189 C19.0046219 63.13776927 17.26381093 61.39778279 15.52225113 59.65854645 C13.09721 57.23603285 10.67537706 54.81035777 8.25439453 52.38378906 C7.53027878 51.66169754 6.80616302 50.93960602 6.06010437 50.19563293 C5.40412766 49.5368364 4.74815094 48.87803986 4.07229614 48.19927979 C3.21345668 47.33987478 3.21345668 47.33987478 2.33726692 46.46310806 C0.0179161 43.92549882 -0.12327274 42.15927825 -0.11352539 38.82568359 C-0.11344986 37.96494232 -0.11337433 37.10420105 -0.11329651 36.21737671 C-0.10813522 35.28712677 -0.10297394 34.35687683 -0.09765625 33.3984375 C-0.0962413 32.44683746 -0.09482635 31.49523743 -0.09336853 30.51480103 C-0.08776012 27.46816903 -0.07520619 24.42160987 -0.0625 21.375 C-0.05748608 19.31250106 -0.05292299 17.25000097 -0.04882812 15.1875 C-0.03778796 10.12497183 -0.02051767 5.06249827 0 0 Z " fill="#681F95" transform="translate(529,374)"/>
<path d="M0 0 C4.43187193 3.71572888 8.67798549 7.53393282 12.75170898 11.63818359 C13.27942398 12.16575256 13.80713898 12.69332153 14.35084534 13.23687744 C16.06831364 14.955034 17.78222753 16.67668852 19.49609375 18.3984375 C20.69656287 19.60077468 21.89725518 20.80288905 23.09815979 22.00479126 C26.23866548 25.14909163 29.37615481 28.29638479 32.51300049 31.44433594 C35.72232618 34.66394173 38.93453005 37.88067321 42.14648438 41.09765625 C48.43379102 47.39564635 54.71791106 53.69680565 61 60 C59.41219641 63.86466333 56.94066771 66.30059155 53.99951172 69.22753906 C53.492034 69.73530884 52.98455627 70.24307861 52.46170044 70.76623535 C50.78906131 72.43748509 49.10945783 74.10154556 47.4296875 75.765625 C46.26625722 76.92532377 45.10326874 78.08546592 43.94070435 79.24603271 C40.884018 82.29509352 37.82137256 85.33809963 34.75744629 88.37988281 C31.63024835 91.48659913 28.50872493 94.59900545 25.38671875 97.7109375 C19.2633512 103.81287417 13.1336764 109.90842598 7 116 C4.12749124 115.00947974 3.03614821 114.05149826 1.27128601 111.53720093 C-0.4523616 106.74135807 -0.39577559 102.46272167 -0.34057617 97.40478516 C-0.34101425 96.35052338 -0.34145233 95.2962616 -0.34190369 94.21005249 C-0.33981888 90.73619874 -0.31650169 87.26283162 -0.29296875 83.7890625 C-0.28737172 81.3762539 -0.28310213 78.96344189 -0.28010559 76.55062866 C-0.26866535 70.20809474 -0.23920491 63.86576774 -0.20599365 57.52331543 C-0.17527527 51.04812418 -0.16159645 44.57289941 -0.14648438 38.09765625 C-0.1143347 25.39834935 -0.06372677 12.69918569 0 0 Z " fill="#F58811" transform="translate(379,439)"/>
<path d="M0 0 C13.81283413 -0.09360896 27.62561878 -0.16379375 41.43870544 -0.20724869 C47.85296647 -0.22810684 54.26701411 -0.25639283 60.68115234 -0.30175781 C66.87329196 -0.34527769 73.06522655 -0.36915044 79.25750732 -0.37950897 C81.61776964 -0.38688922 83.97802096 -0.40130112 86.3381958 -0.42292023 C89.64888598 -0.45203489 92.95873327 -0.4559525 96.26953125 -0.45410156 C97.24129807 -0.46848267 98.21306488 -0.48286377 99.21427917 -0.49768066 C105.55160345 -0.45944263 109.53533313 0.7638569 115 4 C115 8.3393182 114.53111182 8.93087831 111.6365509 11.86112976 C111.14096176 12.3423378 110.64537262 12.82354584 110.13476562 13.31933594 C109.61782639 13.83685928 109.10088715 14.35438263 108.56828308 14.8875885 C106.85691569 16.59616873 105.13181589 18.29014548 103.40625 19.984375 C102.21710774 21.16605716 101.02884544 22.34862544 99.84143066 23.53204346 C96.71343719 26.64476264 93.57361805 29.74528393 90.43121338 32.84344482 C87.22688323 36.0068613 84.03384329 39.18162812 80.83984375 42.35546875 C74.57091485 48.58149509 68.28943865 54.79469781 62 61 C57.94953982 59.38353437 55.23201365 56.50697489 52.22167969 53.46459961 C51.65538849 52.90020676 51.08909729 52.3358139 50.50564575 51.75431824 C48.63947035 49.89184086 46.78058085 48.02227329 44.921875 46.15234375 C43.62758236 44.85685899 42.33291983 43.56174369 41.03790283 42.26698303 C38.32814756 39.55566475 35.62178295 36.84102201 32.91796875 34.1237793 C29.44365504 30.63243364 25.96275214 27.14774964 22.47953415 23.66528988 C19.807922 20.99340656 17.13891825 18.31893083 14.47080231 15.64355659 C13.1875167 14.35707897 11.90361583 13.07121481 10.61910248 11.78596306 C8.83044475 9.9951498 7.04511153 8.20109074 5.26074219 6.40600586 C4.72468353 5.87040039 4.18862488 5.33479492 3.63632202 4.78295898 C0 1.11447695 0 1.11447695 0 0 Z " fill="#F58811" transform="translate(490,328)"/>
<path d="M0 0 C0.91939362 -0.00524185 1.83878723 -0.0104837 2.78604126 -0.0158844 C4.72063188 -0.02227443 6.6552615 -0.02100698 8.58984375 -0.01245117 C11.52415325 -0.00394945 14.45650761 -0.03273161 17.390625 -0.06445312 C19.28124942 -0.06606582 21.17187725 -0.06548629 23.0625 -0.0625 C24.35829483 -0.07935097 24.35829483 -0.07935097 25.68026733 -0.09654236 C32.00950342 -0.02537713 37.64036806 1.23051847 43.1640625 4.43359375 C49.88069828 11.9474833 49.34571073 20.67844225 49.3515625 30.24609375 C49.36380859 31.28830078 49.37605469 32.33050781 49.38867188 33.40429688 C49.40314687 41.09052152 49.21112512 48.18237665 45.0390625 54.80859375 C38.76325259 60.53868106 31.92658294 60.88565921 23.8203125 60.83203125 C22.85178345 60.83490143 21.88325439 60.83777161 20.88537598 60.84072876 C18.84821992 60.84276009 16.81104395 60.83729578 14.77392578 60.82470703 C11.67305483 60.80864034 8.57348713 60.82458784 5.47265625 60.84375 C3.48437215 60.8417674 1.49608886 60.83792339 -0.4921875 60.83203125 C-1.41012085 60.83810394 -2.3280542 60.84417664 -3.27380371 60.85043335 C-10.47577813 60.77255489 -16.31219217 59.84761103 -21.7109375 54.68359375 C-26.57793589 47.23994915 -26.17189401 39.70935375 -26.1484375 31.05859375 C-26.16455078 29.8778125 -26.18066406 28.69703125 -26.19726562 27.48046875 C-26.20181068 19.3175561 -25.7063464 12.20613116 -20.6484375 5.55859375 C-14.18539588 0.67540675 -7.8326378 -0.02649324 0 0 Z M-10.8359375 16.43359375 C-12.35687184 20.99639676 -12.06133233 25.52903943 -12.0859375 30.30859375 C-12.1065625 31.30246094 -12.1271875 32.29632812 -12.1484375 33.3203125 C-12.25964681 40.39890716 -12.25964681 40.39890716 -8.8359375 46.43359375 C-5.64810346 48.02751077 -2.19068466 47.63897082 1.3125 47.671875 C2.52590561 47.68398262 2.52590561 47.68398262 3.76382446 47.69633484 C5.47696795 47.71017365 7.19013898 47.72089672 8.90332031 47.72875977 C11.52201574 47.74598164 14.13945144 47.78986854 16.7578125 47.83398438 C18.42186571 47.84411064 20.08592966 47.85262695 21.75 47.859375 C22.53241058 47.87688309 23.31482117 47.89439117 24.12094116 47.91242981 C27.67655731 47.89825808 29.73761331 47.75197252 32.62744141 45.59448242 C35.92793242 40.95313416 35.38283525 36.08195906 35.4140625 30.62109375 C35.4346875 29.73099609 35.4553125 28.84089844 35.4765625 27.92382812 C35.50768029 22.67659133 35.15939082 18.94839687 32.1640625 14.43359375 C28.97527884 12.83920192 25.51891536 13.24939988 22.015625 13.23046875 C21.20668793 13.22476868 20.39775085 13.2190686 19.56430054 13.2131958 C17.85114857 13.20374285 16.1379784 13.19721065 14.42480469 13.19335938 C11.80631707 13.18365768 9.18861568 13.15263957 6.5703125 13.12109375 C4.90625466 13.11456324 3.24219121 13.10931296 1.578125 13.10546875 C0.79571442 13.09312195 0.01330383 13.08077515 -0.79281616 13.0680542 C-5.04991377 13.08545991 -7.86688103 13.21263449 -10.8359375 16.43359375 Z " fill="#8225B1" transform="translate(466.8359375,615.56640625)"/>
<path d="M0 0 C1.54640671 0.00068733 1.54640671 0.00068733 3.12405396 0.00138855 C5.29072224 0.00439716 7.45738864 0.0122415 9.62402344 0.0246582 C12.95515512 0.04302301 16.28601025 0.04516696 19.6171875 0.04492188 C21.72396076 0.04983344 23.83073212 0.05566018 25.9375 0.0625 C26.93844696 0.06361282 27.93939392 0.06472565 28.97067261 0.06587219 C29.88897858 0.07225204 30.80728455 0.0786319 31.75341797 0.08520508 C32.97084183 0.09092278 32.97084183 0.09092278 34.21286011 0.09675598 C36.0703125 0.23046875 36.0703125 0.23046875 37.0703125 1.23046875 C37.16882421 3.06162758 37.20003879 4.89666808 37.1953125 6.73046875 C37.19917969 8.2309375 37.19917969 8.2309375 37.203125 9.76171875 C37.0703125 12.23046875 37.0703125 12.23046875 36.0703125 13.23046875 C34.7102192 13.33172062 33.34504409 13.36613042 31.98120117 13.37231445 C31.11327438 13.37934891 30.2453476 13.38638336 29.35112 13.39363098 C27.93401482 13.3998774 27.93401482 13.3998774 26.48828125 13.40625 C24.5045467 13.4294503 22.52082271 13.45356772 20.53710938 13.47851562 C17.39665703 13.51364153 14.2565917 13.54297397 11.1159668 13.55639648 C8.09375629 13.57185597 5.07269021 13.61205806 2.05078125 13.65625 C0.64278511 13.65338737 0.64278511 13.65338737 -0.7936554 13.65046692 C-5.93353429 13.72955222 -5.93353429 13.72955222 -10.4909668 15.89135742 C-12.38557392 18.64253044 -12.38557392 18.64253044 -12.9296875 24.23046875 C3.2403125 24.23046875 19.4103125 24.23046875 36.0703125 24.23046875 C36.0703125 27.86046875 36.0703125 31.49046875 36.0703125 35.23046875 C35.0703125 36.23046875 35.0703125 36.23046875 33.12779236 36.35072327 C32.27729813 36.34850266 31.42680389 36.34628204 30.55053711 36.34399414 C29.10915627 36.34388084 29.10915627 36.34388084 27.63865662 36.34376526 C26.5938765 36.33860397 25.54909637 36.33344269 24.47265625 36.328125 C23.40866104 36.32671005 22.34466583 36.3252951 21.24842834 36.32383728 C17.83486167 36.31821939 14.4213595 36.30566386 11.0078125 36.29296875 C8.69987074 36.28795606 6.39192795 36.28339275 4.08398438 36.27929688 C-1.58726176 36.26824415 -7.25847003 36.25148862 -12.9296875 36.23046875 C-12.47146282 39.69988421 -12.03837067 42.90441924 -10.9296875 46.23046875 C-10.35783722 46.24077621 -9.78598694 46.25108368 -9.19680786 46.26170349 C-3.25982964 46.3696519 2.67699321 46.48425917 8.61376953 46.6027832 C10.83118447 46.64616953 13.04863362 46.68784183 15.26611328 46.7277832 C18.44834722 46.78539629 21.63040834 46.84911639 24.8125 46.9140625 C25.80837128 46.93077499 26.80424255 46.94748749 27.83029175 46.96470642 C28.75109528 46.98465164 29.6718988 47.00459686 30.62060547 47.02514648 C31.83972122 47.04846291 31.83972122 47.04846291 33.08346558 47.07225037 C35.0703125 47.23046875 35.0703125 47.23046875 37.0703125 48.23046875 C37.0703125 52.19046875 37.0703125 56.15046875 37.0703125 60.23046875 C30.23846797 60.30487724 23.40686175 60.35919359 16.57470703 60.39526367 C14.2527251 60.41030786 11.93077138 60.4307482 9.60888672 60.45678711 C6.26262427 60.4933622 2.91673906 60.51023929 -0.4296875 60.5234375 C-1.4602124 60.53892136 -2.4907373 60.55440521 -3.55249023 60.57035828 C-9.96638445 60.57184066 -16.33578975 60.32728516 -21.45068359 55.91984558 C-27.67731381 49.01319516 -27.27384972 41.17221578 -27.24536133 32.39990234 C-27.24220636 30.36761549 -27.26568193 28.33679442 -27.29101562 26.3046875 C-27.29872229 10.75264148 -27.29872229 10.75264148 -21.1796875 4.35546875 C-14.37771409 -0.0919754 -7.8966969 -0.05738446 0 0 Z " fill="#ED2D21" transform="translate(621.9296875,615.76953125)"/>
<path d="M0 0 C0.75990234 -0.02900391 1.51980469 -0.05800781 2.30273438 -0.08789062 C6.11395676 -0.13093658 8.17365681 -0.00095866 11.4921875 2.0234375 C13.71119368 4.33720551 15.62478772 6.64914549 17.5 9.25 C18.26699219 10.29671875 19.03398437 11.3434375 19.82421875 12.421875 C20.26427246 13.02322266 20.70432617 13.62457031 21.15771484 14.24414062 C24.32878129 18.5316087 27.57737305 22.76080397 30.8125 27 C31.48128174 27.87841553 32.15006348 28.75683105 32.83911133 29.66186523 C37.08913657 35.23900864 41.38197865 40.77682969 45.6875 46.3125 C46.0175 31.1325 46.3475 15.9525 46.6875 0.3125 C50.9775 0.3125 55.2675 0.3125 59.6875 0.3125 C61.34505202 1.97005202 60.82336046 3.93194024 60.83276367 6.21191406 C60.83914352 7.25679993 60.84552338 8.30168579 60.85209656 9.37823486 C60.85320938 10.51669861 60.8543222 11.65516235 60.85546875 12.828125 C60.86046135 14.5728006 60.86046135 14.5728006 60.86555481 16.35272217 C60.8706303 18.82091882 60.87296294 21.28912236 60.87280273 23.75732422 C60.87498259 27.53234231 60.89311366 31.30706519 60.91210938 35.08203125 C60.91504449 37.4765615 60.91702849 39.87109314 60.91796875 42.265625 C60.92515427 43.39599182 60.93233978 44.52635864 60.93974304 45.690979 C60.93666641 46.74847351 60.93358978 47.80596802 60.93041992 48.89550781 C60.93184494 49.82292786 60.93326996 50.7503479 60.93473816 51.70587158 C60.66106966 54.59115469 59.97942593 56.72363909 58.6875 59.3125 C55.35260844 60.97994578 51.72469321 60.79101227 48.0625 60.9375 C46.88880859 61.04384766 46.88880859 61.04384766 45.69140625 61.15234375 C41.88893077 61.27215641 39.58393337 61.03808079 36.57006836 58.59863281 C34.45465287 56.26095931 32.55967247 53.8486966 30.6875 51.3125 C30.08679688 50.53986816 29.48609375 49.76723633 28.8671875 48.97119141 C27.04491401 46.60811738 25.26808904 44.21632815 23.5 41.8125 C16.65940549 32.56803555 9.67583781 23.4510956 2.6875 14.3125 C2.3575 29.4925 2.0275 44.6725 1.6875 60.3125 C-2.9325 60.3125 -7.5525 60.3125 -12.3125 60.3125 C-12.36189996 52.55290661 -12.39821981 44.79340457 -12.42236328 37.03369141 C-12.43242719 34.39337571 -12.44607952 31.75307117 -12.46337891 29.11279297 C-12.48760971 25.31995897 -12.49897923 21.52727221 -12.5078125 17.734375 C-12.51813507 16.55196228 -12.52845764 15.36954956 -12.53909302 14.15130615 C-12.53924408 13.05046692 -12.53939514 11.94962769 -12.53955078 10.81542969 C-12.543992 9.84724304 -12.54843323 8.8790564 -12.55300903 7.88153076 C-12.30077848 5.18729492 -11.77496501 3.57512411 -10.3125 1.3125 C-7.07124994 -0.30812503 -3.55800138 0.04458648 0 0 Z " fill="#8125B0" transform="translate(371.3125,615.6875)"/>
<path d="M0 0 C0.75087891 -0.02384766 1.50175781 -0.04769531 2.27539062 -0.07226562 C6.23949382 -0.06180625 8.03990893 0.15358202 11.23828125 2.65625 C12.00527344 3.6153125 12.77226562 4.574375 13.5625 5.5625 C14.01101318 6.09818604 14.45952637 6.63387207 14.92163086 7.18579102 C16.41491982 8.9767742 17.86668623 10.79551662 19.3125 12.625 C19.83763184 13.2854834 20.36276367 13.9459668 20.90380859 14.62646484 C24.79570047 19.5419776 28.58525556 24.52373504 32.31640625 29.5625 C33.96945493 31.77039807 35.63975059 33.95392325 37.33984375 36.125 C37.80374512 36.71909668 38.26764648 37.31319336 38.74560547 37.92529297 C39.64825224 39.07844419 40.5546886 40.22864153 41.46533203 41.37548828 C44.5625 45.34099805 44.5625 45.34099805 44.5625 47.5625 C45.2225 47.5625 45.8825 47.5625 46.5625 47.5625 C46.5625 32.0525 46.5625 16.5425 46.5625 0.5625 C50.8525 0.5625 55.1425 0.5625 59.5625 0.5625 C59.63026418 7.94253994 59.68530904 15.32241002 59.71793652 22.70269489 C59.73359574 26.12963223 59.75483804 29.55634577 59.78881836 32.9831543 C59.82763514 36.92233608 59.84220716 40.86142709 59.85546875 44.80078125 C59.87095261 46.03210281 59.88643646 47.26342438 59.90238953 48.53205872 C59.90261612 49.67301498 59.90284271 50.81397125 59.90307617 51.98950195 C59.91306892 53.49840752 59.91306892 53.49840752 59.92326355 55.03779602 C59.5625 57.5625 59.5625 57.5625 58.2858429 59.37052917 C53.71850467 62.52958355 45.97764864 61.57776701 40.64111328 60.99658203 C35.69882143 59.96447081 33.44437178 56.44052191 30.81347656 52.42089844 C29.32916947 50.21587392 27.73317487 48.11822435 26.1171875 46.0078125 C23.6186175 42.73969687 21.14315094 39.45761689 18.69921875 36.1484375 C13.36088393 28.92281259 7.95753817 21.74581573 2.5625 14.5625 C2.5470388 15.40481422 2.5470388 15.40481422 2.53126526 16.2641449 C2.42342315 22.08743466 2.30880792 27.91056264 2.19018555 33.73364258 C2.14676493 35.90938953 2.10509529 38.08517214 2.06518555 40.26098633 C2.00765498 43.38113168 1.94391177 46.50109633 1.87890625 49.62109375 C1.85383751 51.08983192 1.85383751 51.08983192 1.82826233 52.58824158 C1.80831711 53.48909988 1.78837189 54.38995819 1.76782227 55.31811523 C1.75227798 56.11531479 1.7367337 56.91251434 1.72071838 57.73387146 C1.5625 59.5625 1.5625 59.5625 0.5625 60.5625 C-1.62389453 60.63508946 -3.81250389 60.64623783 -6 60.625 C-7.79630859 60.61146484 -7.79630859 60.61146484 -9.62890625 60.59765625 C-10.55574219 60.58605469 -11.48257813 60.57445312 -12.4375 60.5625 C-12.53882712 52.66059304 -12.60893514 44.75885328 -12.65722656 36.85644531 C-12.675099 34.16745534 -12.70294475 31.47884174 -12.73925781 28.79003906 C-12.78771615 24.92762439 -12.81045626 21.06578792 -12.828125 17.203125 C-12.84877014 15.9988385 -12.86941528 14.794552 -12.89068604 13.55377197 C-12.89098816 12.43291199 -12.89129028 11.312052 -12.89160156 10.15722656 C-12.90048401 9.17127502 -12.90936646 8.18532349 -12.91851807 7.16949463 C-11.61880794 0.12539886 -6.11324101 -0.08874902 0 0 Z " fill="#8125B0" transform="translate(206.4375,615.4375)"/>
<path d="M0 0 C1.66869141 -0.02900391 1.66869141 -0.02900391 3.37109375 -0.05859375 C7.30115194 0.55232105 8.66345713 1.74759695 11.5625 4.4375 C13.39257812 7.1887207 13.39257812 7.1887207 15.09375 10.36328125 C15.40699219 10.93955261 15.72023438 11.51582397 16.04296875 12.10955811 C17.05958558 13.98444668 18.06109901 15.8669476 19.0625 17.75 C20.11881871 19.71008475 21.17865929 21.66823531 22.2388916 23.62620544 C22.9561867 24.95119304 23.67224644 26.27685013 24.38708496 27.60316467 C26.69799344 31.88141031 29.07214071 36.11507505 31.5 40.328125 C32.10263672 41.37444092 32.70527344 42.42075684 33.32617188 43.4987793 C34.4620325 45.4620997 35.603735 47.42205484 36.75195312 49.37817383 C37.25662109 50.25497803 37.76128906 51.13178223 38.28125 52.03515625 C38.94543945 53.17223022 38.94543945 53.17223022 39.62304688 54.33227539 C40.5625 56.4375 40.5625 56.4375 40.5625 60.4375 C35.6125 60.4375 30.6625 60.4375 25.5625 60.4375 C24.98242188 58.64699219 24.40234375 56.85648438 23.8046875 55.01171875 C22.170455 52.01562584 20.9808559 49.90907211 17.63586426 48.79693604 C11.69750192 47.8336017 5.68013584 48.09891178 -0.3125 48.25 C-2.16405044 48.25696193 -4.01562658 48.25896822 -5.8671875 48.25585938 C-10.3929344 48.25904073 -14.91307637 48.33004732 -19.4375 48.4375 C-19.88174316 49.81881104 -19.88174316 49.81881104 -20.33496094 51.22802734 C-21.6116747 54.94451963 -22.81253258 57.49093061 -25.4375 60.4375 C-28.33344351 60.89961865 -30.34247024 61.022247 -33.1875 60.8125 C-33.88488281 60.78542969 -34.58226562 60.75835938 -35.30078125 60.73046875 C-37.01435705 60.66004783 -38.72633302 60.55242913 -40.4375 60.4375 C-39.72700218 56.52705018 -37.90072536 53.24897966 -36.04296875 49.78515625 C-35.69927246 49.13664703 -35.35557617 48.48813782 -35.00146484 47.81997681 C-33.88111785 45.71053227 -32.75370666 43.60498205 -31.625 41.5 C-31.24300446 40.78518463 -30.86100891 40.07036926 -30.46743774 39.33389282 C-25.596636 30.22252317 -20.69065652 21.1297994 -15.625 12.125 C-15.15280029 11.27365479 -14.68060059 10.42230957 -14.1940918 9.54516602 C-13.75234619 8.77100342 -13.31060059 7.99684082 -12.85546875 7.19921875 C-12.48188232 6.53881592 -12.1082959 5.87841309 -11.72338867 5.19799805 C-8.45978663 0.72983128 -5.39222052 0.00623378 0 0 Z M-0.4375 13.4375 C-2.44428401 17.05878443 -4.4417648 20.68511643 -6.4375 24.3125 C-7.00984375 25.34503906 -7.5821875 26.37757813 -8.171875 27.44140625 C-8.98398437 28.92060547 -8.98398437 28.92060547 -9.8125 30.4296875 C-10.31523437 31.34089355 -10.81796875 32.25209961 -11.3359375 33.19091797 C-12.58425095 35.3197724 -12.58425095 35.3197724 -12.4375 37.4375 C-3.8575 37.4375 4.7225 37.4375 13.5625 37.4375 C7.63996864 25.1104954 7.63996864 25.1104954 0.5625 13.4375 C0.2325 13.4375 -0.0975 13.4375 -0.4375 13.4375 Z " fill="#7A23A8" transform="translate(312.4375,615.5625)"/>
<path d="M0 0 C4.29 0 8.58 0 13 0 C14 1 14 1 14.11352539 3.22485352 C14.10828857 4.18319092 14.10305176 5.14152832 14.09765625 6.12890625 C14.09515869 7.06033447 14.09266113 7.9917627 14.09008789 8.95141602 C14.07643188 10.73890259 14.07643188 10.73890259 14.0625 12.5625 C14.0315625 18.2240625 14.0315625 18.2240625 14 24 C26.54 24 39.08 24 52 24 C51.96041166 16.47567226 51.96041166 16.47567226 51.90991211 8.95141602 C51.90741455 8.01998779 51.90491699 7.08855957 51.90234375 6.12890625 C51.89710693 5.17056885 51.89187012 4.21223145 51.88647461 3.22485352 C52 1 52 1 53 0 C57.29 0 61.58 0 66 0 C66 19.8 66 39.6 66 60 C61.38 60 56.76 60 52 60 C52 52.08 52 44.16 52 36 C39.46 36 26.92 36 14 36 C14.03958834 43.52432774 14.03958834 43.52432774 14.09008789 51.04858398 C14.09258545 51.98001221 14.09508301 52.91144043 14.09765625 53.87109375 C14.10289307 54.82943115 14.10812988 55.78776855 14.11352539 56.77514648 C14 59 14 59 13 60 C8.71 60 4.42 60 0 60 C0 40.2 0 20.4 0 0 Z " fill="#ED2D21" transform="translate(740,616)"/>
<path d="M0 0 C1.57970078 0.00068733 1.57970078 0.00068733 3.1913147 0.00138855 C5.40506119 0.00439761 7.61880581 0.01224335 9.83251953 0.0246582 C13.23607798 0.04302009 16.63936573 0.04516699 20.04296875 0.04492188 C22.19531487 0.04983353 24.34765914 0.05566031 26.5 0.0625 C27.52282074 0.06361282 28.54564148 0.06472565 29.59945679 0.06587219 C31.00694687 0.07544197 31.00694687 0.07544197 32.44287109 0.08520508 C33.27225189 0.08901688 34.10163269 0.09282867 34.95614624 0.09675598 C36.8515625 0.23046875 36.8515625 0.23046875 37.8515625 1.23046875 C37.95007421 3.06162758 37.98128879 4.89666808 37.9765625 6.73046875 C37.98042969 8.2309375 37.98042969 8.2309375 37.984375 9.76171875 C37.8515625 12.23046875 37.8515625 12.23046875 36.8515625 13.23046875 C35.49186983 13.34206591 34.12661105 13.3871434 32.76245117 13.40405273 C31.89452438 13.41754257 31.0265976 13.43103241 30.13237 13.44493103 C29.18763321 13.45536942 28.24289642 13.4658078 27.26953125 13.4765625 C25.28580297 13.50950621 23.30207912 13.54271776 21.31835938 13.57617188 C18.17801022 13.62357801 15.03767838 13.66798607 11.8972168 13.70727539 C8.87529272 13.74699061 5.8537471 13.79854498 2.83203125 13.8515625 C1.89336716 13.85997665 0.95470306 13.86839081 -0.0124054 13.87705994 C-0.88978867 13.89370193 -1.76717194 13.91034393 -2.67114258 13.92749023 C-3.82577751 13.94295143 -3.82577751 13.94295143 -5.0037384 13.95872498 C-7.44600264 14.2681717 -9.06186492 14.93584681 -11.1484375 16.23046875 C-13.20094189 20.33547753 -12.42163584 25.59363819 -12.4609375 30.10546875 C-12.48994141 31.20761719 -12.51894531 32.30976562 -12.54882812 33.4453125 C-12.55720703 34.50621094 -12.56558594 35.56710937 -12.57421875 36.66015625 C-12.58880127 37.63194824 -12.60338379 38.60374023 -12.6184082 39.60498047 C-12.29815206 42.2919558 -12.29815206 42.2919558 -10.75927734 44.54272461 C-6.68049826 47.17939937 -2.70852129 46.81414338 2.05078125 46.8046875 C3.04157181 46.81885208 4.03236237 46.83301666 5.05317688 46.84761047 C8.21524948 46.88953174 11.37675097 46.90475943 14.5390625 46.91796875 C17.71182073 46.94697984 20.88443253 46.98145731 24.05708313 47.02046204 C26.03128955 47.04303216 28.00558707 47.05880092 29.97990417 47.06730652 C30.86785172 47.07434097 31.75579926 47.08137543 32.6706543 47.08862305 C33.45578903 47.09210251 34.24092377 47.09558197 35.04985046 47.09916687 C36.8515625 47.23046875 36.8515625 47.23046875 37.8515625 48.23046875 C37.95007421 50.06162758 37.98128879 51.89666808 37.9765625 53.73046875 C37.98042969 55.2309375 37.98042969 55.2309375 37.984375 56.76171875 C37.8515625 59.23046875 37.8515625 59.23046875 36.8515625 60.23046875 C35.3596832 60.33921826 33.86273208 60.37950241 32.36694336 60.39160156 C31.41182358 60.40120911 30.4567038 60.41081665 29.47264099 60.42071533 C28.43108353 60.42496521 27.38952606 60.42921509 26.31640625 60.43359375 C24.71557945 60.44214386 24.71557945 60.44214386 23.08241272 60.4508667 C20.81512448 60.46033747 18.54782234 60.46685888 16.28051758 60.47070312 C12.82803819 60.48035973 9.37616637 60.51134352 5.92382812 60.54296875 C3.7213577 60.54950347 1.51888302 60.55475209 -0.68359375 60.55859375 C-1.7109816 60.57094055 -2.73836945 60.58328735 -3.79689026 60.5960083 C-10.17457887 60.57642135 -16.6311733 60.34251493 -21.66957092 55.88458252 C-27.81677861 48.941668 -27.49141665 41.80501288 -27.46411133 33.0480957 C-27.46096217 30.93452845 -27.48439801 28.82237783 -27.50976562 26.70898438 C-27.58607979 10.82436751 -27.58607979 10.82436751 -21.3984375 4.35546875 C-14.53358358 -0.13308958 -7.97001055 -0.05666374 0 0 Z " fill="#ED2D21" transform="translate(694.1484375,615.76953125)"/>
<path d="M0 0 C9.10959489 -0.0225528 18.21917137 -0.04091611 27.3287878 -0.05181217 C31.55831371 -0.05704056 35.7878196 -0.0641374 40.01733398 -0.07543945 C44.09568543 -0.08626991 48.17401757 -0.09227717 52.25238228 -0.09487724 C53.81177639 -0.09673121 55.3711694 -0.10035127 56.93055534 -0.10573006 C59.10729162 -0.11294262 61.28394714 -0.11399085 63.46069336 -0.11352539 C65.32267616 -0.11685631 65.32267616 -0.11685631 67.22227478 -0.12025452 C70 0 70 0 71 1 C71.09851171 2.83115883 71.12972629 4.66619933 71.125 6.5 C71.12886719 8.00046875 71.12886719 8.00046875 71.1328125 9.53125 C71 12 71 12 70 13 C67.92737924 13.08767112 65.85179706 13.10695873 63.77734375 13.09765625 C62.64288818 13.09515869 61.50843262 13.09266113 60.33959961 13.09008789 C58.1605603 13.07643188 58.1605603 13.07643188 55.9375 13.0625 C49.0384375 13.0315625 49.0384375 13.0315625 42 13 C42 28.51 42 44.02 42 60 C37.71 60 33.42 60 29 60 C28 59 28 59 27.87974548 57.13340759 C27.8830764 55.91096092 27.8830764 55.91096092 27.88647461 54.66381836 C27.88655014 53.7429393 27.88662567 52.82206024 27.88670349 51.87327576 C27.89186478 50.87224319 27.89702606 49.87121063 27.90234375 48.83984375 C27.9037587 47.82024063 27.90517365 46.80063751 27.90663147 45.75013733 C27.91224903 42.47922893 27.9248045 39.20838787 27.9375 35.9375 C27.94251274 33.72591244 27.94707604 31.51432382 27.95117188 29.30273438 C27.9613752 23.86844248 27.98094715 18.43429702 28 13 C18.76 13 9.52 13 0 13 C0 8.71 0 4.42 0 0 Z " fill="#EE331F" transform="translate(520,616)"/>
</svg>
